<!DOCTYPE svg PUBLIC "-//W3C//DTD SVG 20010904//EN" "http://www.w3.org/TR/2001/REC-SVG-20010904/DTD/svg10.dtd">
<svg version="1.0" xmlns="http://www.w3.org/2000/svg" width="225px" height="225px" viewBox="0 0 2250 2250" preserveAspectRatio="xMidYMid meet">
<g id="layer101" fill="#8d3d20" stroke="none">
 <path d="M1100 2243 c-31 -11 -40 -37 -40 -119 l0 -82 -182 -78 c-101 -44 -210 -92 -243 -109 l-59 -30 -79 -175 c-43 -96 -101 -226 -128 -287 l-50 -112 112 -348 c61 -192 116 -357 123 -369 16 -30 523 -517 548 -527 12 -4 31 -4 44 0 25 9 533 495 550 527 6 12 62 178 123 369 l112 348 -126 282 c-70 155 -132 288 -139 295 -7 7 -115 57 -242 112 l-229 99 -5 91 c-4 76 -8 94 -24 106 -20 14 -40 16 -66 7z"/>
 </g>
<g id="layer102" fill="#f3b633" stroke="none">
 <path d="M821 1939 c-124 -54 -230 -104 -237 -111 -10 -11 -228 -486 -255 -557 -7 -18 15 -98 102 -370 61 -190 116 -355 123 -367 17 -33 524 -518 550 -527 12 -4 32 -4 43 0 25 10 533 497 549 527 6 12 62 178 123 369 l112 348 -126 282 c-70 155 -132 288 -139 295 -9 9 -380 175 -458 205 -17 6 -18 -6 -18 -166 l0 -172 205 -159 c137 -106 207 -166 211 -182 8 -31 -18 -72 -51 -80 -30 -7 -37 -3 -209 130 -72 56 -137 105 -143 110 -10 5 -13 -16 -13 -96 l1 -103 182 -140 c164 -127 182 -144 185 -174 6 -62 -53 -92 -108 -54 -14 9 -76 57 -137 105 -62 48 -115 88 -118 88 -3 0 -5 -49 -5 -110 l0 -110 87 -67 c147 -115 154 -122 151 -156 -2 -19 -13 -38 -30 -50 -33 -25 -52 -18 -138 48 -32 25 -61 45 -64 45 -3 0 -6 -81 -6 -180 0 -167 -1 -181 -20 -200 -26 -26 -51 -25 -83 1 l-27 20 -2 184 -3 184 -70 -54 c-82 -64 -123 -72 -151 -30 -28 43 -12 67 111 161 l115 89 0 118 0 118 -72 -57 c-223 -175 -239 -183 -278 -144 -25 25 -26 64 -2 88 9 9 93 75 185 146 l167 129 0 103 c0 57 -2 104 -5 104 -3 0 -72 -51 -153 -113 -81 -63 -157 -119 -169 -125 -48 -26 -95 23 -79 80 4 14 84 82 206 176 l200 153 0 175 c0 95 -3 174 -7 173 -5 0 -109 -45 -232 -100z"/>
 </g>

</svg>